<svg width="242" height="202" viewBox="0 0 242 202" fill="none" xmlns="http://www.w3.org/2000/svg">
<rect y="12.142" width="232" height="190" rx="18" transform="rotate(-3 0 12.142)" fill="#2EC4B6"/>
<circle cx="120.813" cy="100.941" r="69.25" transform="rotate(-3 120.813 100.941)" stroke="#1C1714" stroke-opacity="0.18" stroke-width="1.5" stroke-dasharray="4 4"/>
<path d="M110.327 101.49C112.901 101.355 114.878 99.1597 114.743 96.5859C114.608 94.0121 112.413 92.0349 109.839 92.1698C107.265 92.3047 105.288 94.5005 105.423 97.0743C105.558 99.6481 107.754 101.625 110.327 101.49Z" fill="white"/>
<path d="M131.299 100.391C133.872 100.256 135.849 98.0605 135.715 95.4867C135.58 92.9129 133.384 90.9358 130.81 91.0707C128.236 91.2056 126.259 93.4014 126.394 95.9752C126.529 98.549 128.725 100.526 131.299 100.391Z" fill="white"/>
<path d="M106.094 109.89C112.408 118.905 131.049 117.928 136.386 108.302" stroke="white" stroke-width="5.83333" stroke-linecap="round"/>
</svg>
