<svg width="239" height="198" viewBox="0 0 239 198" fill="none" xmlns="http://www.w3.org/2000/svg">
<rect x="6.63092" width="232" height="190" rx="18" transform="rotate(2 6.63092 0)" fill="#6BC759"/>
<circle cx="119.245" cy="98.9905" r="69.25" transform="rotate(2 119.245 98.9905)" stroke="#1C1714" stroke-opacity="0.18" stroke-width="1.5" stroke-dasharray="4 4"/>
<path d="M124.397 85.1619C124.487 82.5861 122.472 80.4251 119.896 80.3352C117.32 80.2452 115.16 82.2604 115.07 84.8361L114.011 115.151C113.921 117.727 115.936 119.888 118.512 119.978C121.088 120.068 123.249 118.052 123.339 115.477L124.397 85.1619Z" fill="white"/>
<path d="M114.825 91.8319L105.498 91.5061C104.261 91.4629 103.057 91.9129 102.152 92.757C101.247 93.6011 100.714 94.7702 100.671 96.0071L100.427 103.003" stroke="white" stroke-width="8.16667" stroke-linecap="round"/>
<path d="M123.909 99.1533L133.236 99.479C134.473 99.5222 135.642 100.055 136.486 100.96C137.331 101.865 137.78 103.069 137.737 104.306L137.574 108.97" stroke="white" stroke-width="8.16667" stroke-linecap="round"/>
</svg>
