<svg width="239" height="198" viewBox="0 0 239 198" fill="none" xmlns="http://www.w3.org/2000/svg">
<rect y="8.09668" width="232" height="190" rx="18" transform="rotate(-2 0 8.09668)" fill="#2EC4B6"/>
<circle cx="119.245" cy="98.9905" r="69.25" transform="rotate(-2 119.245 98.9905)" stroke="#1C1714" stroke-opacity="0.18" stroke-width="1.5" stroke-dasharray="4 4"/>
<path d="M103.329 111.22C100.706 111.223 98.1778 110.245 96.2404 108.478C94.3029 106.711 93.0968 104.283 92.8593 101.671C92.6217 99.0598 93.3699 96.454 94.9567 94.3663C96.5435 92.2786 98.854 90.8603 101.434 90.3902C101.181 87.4145 101.974 84.4438 103.677 81.99C105.379 79.5362 107.883 77.7529 110.759 76.9472C113.635 76.1416 116.701 76.3641 119.431 77.5764C122.16 78.7887 124.381 80.9149 125.711 83.5888C127.744 82.7293 130.016 82.6179 132.123 83.2745C134.23 83.931 136.036 85.3131 137.221 87.1752C138.405 89.0373 138.892 91.2589 138.594 93.4457C138.296 95.6325 137.232 97.6429 135.593 99.12C136.42 100.942 136.676 102.972 136.328 104.943C135.98 106.913 135.044 108.733 133.643 110.161L103.329 111.22Z" fill="white"/>
</svg>
