<svg width="239" height="198" viewBox="0 0 239 198" fill="none" xmlns="http://www.w3.org/2000/svg">
<rect y="8.09668" width="232" height="190" rx="18" transform="rotate(-2 0 8.09668)" fill="#FF5B39"/>
<circle cx="119.245" cy="98.9905" r="69.25" transform="rotate(-2 119.245 98.9905)" stroke="#1C1714" stroke-opacity="0.18" stroke-width="1.5" stroke-dasharray="4 4"/>
<path d="M118.349 73.3395C127.921 80.0095 130.741 93.9195 128.817 105.661L119.815 115.314L110.161 106.312C107.422 94.7339 109.266 80.6609 118.349 73.3395Z" fill="white"/>
<path d="M119.163 96.6586C121.739 96.5686 123.754 94.4076 123.664 91.8319C123.574 89.2561 121.413 87.241 118.838 87.3309C116.262 87.4209 114.247 89.5818 114.337 92.1576C114.427 94.7334 116.588 96.7485 119.163 96.6586Z" fill="#FF5B39"/>
<path d="M110.161 106.312L103.573 118.216L115.07 113.145M128.817 105.661L136.22 117.076L124.397 112.819" fill="white"/>
</svg>
