<svg width="239" height="198" viewBox="0 0 239 198" fill="none" xmlns="http://www.w3.org/2000/svg">
<rect x="6.63092" width="232" height="190" rx="18" transform="rotate(2 6.63092 0)" fill="#FFC93C"/>
<circle cx="119.245" cy="98.9904" r="69.25" transform="rotate(2 119.245 98.9904)" stroke="#1C1714" stroke-opacity="0.18" stroke-width="1.5" stroke-dasharray="4 4"/>
<path d="M118.878 109.484C124.674 109.686 129.536 105.152 129.738 99.3569C129.941 93.5614 125.407 88.6992 119.611 88.4968C113.816 88.2944 108.954 92.8285 108.751 98.624C108.549 104.419 113.083 109.282 118.878 109.484Z" fill="white"/>
<path d="M120.222 71.0075L119.896 80.3351M118.593 117.646L118.268 126.973M91.2619 98.0132L100.59 98.3389M137.9 99.6419L147.228 99.9676M98.9905 77.2703L105.742 84.5103M132.748 113.47L139.499 120.71M140.965 78.7361L133.725 85.4875M104.765 112.493L97.5247 119.245" stroke="white" stroke-width="7" stroke-linecap="round"/>
</svg>
